# xmcd
#
# Track frame offsets:
#	150
#	19196
#	39321
#	64624
#	84593
#	103378
#	121137
#	139691
#	155112
#	170892
#	188318
#	206139
#	228410
#	248638
#	268252
#	293113
#	314923
#	334369
#
# Disc length: 4738 seconds
#
# Revision: 0
# Processed by: cddbd v1.5.1PL0 Copyright (c) Steve Scherf et al.
# Submitted via: dBpowerAMP V4.0
#
DISCID=11128012
DTITLE=나 - 짬뽕
DYEAR=2004
DGENRE=Blues
TTITLE0=삭제
TTITLE1=청혼
TTITLE2=눈의꽃
TTITLE3=그런일은
TTITLE4=그사람의결혼식
TTITLE5=나비
TTITLE6=나윤선
TTITLE7=잔소리
TTITLE8=boys
TTITLE9=태양을피하는..
TTITLE10=sos
TTITLE11=I believe
TTITLE12=안되나요
TTITLE13=모놀로그
TTITLE14=If I leave
TTITLE15=그대 돌아오면
TTITLE16=사랑의 추억
TTITLE17=희재
EXTD=
EXTT0=
EXTT1=
EXTT2=
EXTT3=
EXTT4=
EXTT5=
EXTT6=
EXTT7=
EXTT8=
EXTT9=
EXTT10=
EXTT11=
EXTT12=
EXTT13=
EXTT14=
EXTT15=
EXTT16=
EXTT17=
PLAYORDER=
